<svg width="24" height="24" viewBox="0 0 24 24" fill="none" xmlns="http://www.w3.org/2000/svg">
<path d="M11.991 4.00051C9.74479 4.00051 7.49795 3.99895 5.25169 4.00129C4.61646 4.00207 4.17709 4.41881 4.0348 5.14402C3.87167 5.97672 4.29973 6.83357 4.94866 6.96677C5.0582 6.98936 5.17073 6.99871 5.28146 6.99871C9.75968 7.00027 14.2379 7.00027 18.7155 6.99949C19.3662 6.99949 19.8038 6.60923 19.9568 5.89804C20.142 5.04353 19.7121 4.16331 19.0418 4.03167C18.9173 4.00752 18.7899 4.00207 18.6637 4.00207C16.4395 4.00051 14.2153 4.00051 11.991 4.00051Z" fill="white"/>
<path d="M12.0117 20.9995C14.2578 20.9995 16.5046 21.001 18.7507 20.9987C19.3823 20.9979 19.8258 20.575 19.9657 19.8521C20.1277 19.0202 19.6979 18.1649 19.0478 18.0324C18.9382 18.0099 18.8257 18.0013 18.7144 18.0013C14.2364 17.9997 9.75842 17.9997 5.28104 18.0005C4.62916 18.0005 4.19517 18.3908 4.04218 19.1051C3.85942 19.9611 4.28983 20.8375 4.96135 20.9683C5.08577 20.9925 5.21317 20.9979 5.33938 20.9979C7.56349 21.0003 9.78759 21.0003 12.0117 20.9995Z" fill="white"/>
<path d="M12.0182 13.9988C14.6858 13.9988 17.3547 14.0019 20.0222 13.998C21.525 13.9957 22.6038 13.5579 22.9261 12.835C23.2914 12.0131 22.2614 11.1679 20.7271 11.0331C20.5165 11.0144 20.3002 11.002 20.0867 11.002C14.6972 11.0004 9.3063 10.9981 3.91682 11.0028C2.32519 11.0043 1.20345 11.5317 1.02008 12.3372C0.843868 13.1108 1.84669 13.8415 3.26641 13.9653C3.5472 13.9895 3.83659 13.998 4.12168 13.998C6.75339 14.0004 9.38653 13.9988 12.0182 13.9988Z" fill="white"/>
</svg>
